<?xml version="1.0" standalone="no"?>
<!DOCTYPE svg PUBLIC "-//W3C//DTD SVG 20010904//EN"
 "http://www.w3.org/TR/2001/REC-SVG-20010904/DTD/svg10.dtd">
<svg version="1.0" xmlns="http://www.w3.org/2000/svg"
 width="345.000000pt" height="146.000000pt" viewBox="0 0 345.000000 146.000000"
 preserveAspectRatio="xMidYMid meet">

<g transform="translate(0.000000,146.000000) scale(0.100000,-0.100000)"
fill="#000000" stroke="none">
<path d="M1003 1428 c-18 -6 -33 -14 -33 -18 0 -3 -7 -15 -16 -26 -8 -10 -13
-14 -10 -7 4 6 0 14 -6 16 -8 3 -6 6 5 6 9 1 17 6 17 11 0 6 -13 4 -30 -5 -31
-16 -42 -32 -15 -21 9 3 15 1 14 -7 -1 -6 -1 -21 0 -31 1 -18 2 -18 25 3 16
15 31 21 44 17 11 -4 23 -2 27 4 3 6 11 8 16 5 5 -3 6 1 3 9 -8 20 -24 21 -24
1 0 -13 -4 -14 -21 -4 -21 11 -21 12 10 26 17 9 31 19 31 24 0 5 -1 9 -2 8 -2
-1 -18 -6 -35 -11z"/>
<path d="M1054 1428 c-3 -4 8 -8 25 -8 16 0 33 -4 36 -10 4 -6 -7 -8 -27 -5
-26 4 -29 3 -13 -4 17 -8 18 -10 3 -10 -10 -1 -18 -8 -18 -16 0 -18 12 -19 27
-4 8 8 15 6 25 -10 7 -11 19 -21 27 -21 8 0 11 3 8 7 -4 3 2 17 14 29 l21 22
-21 12 c-12 6 -26 8 -31 5 -6 -3 -10 -2 -10 3 0 12 -59 21 -66 10z m100 -24
c14 -5 14 -8 -1 -22 -12 -12 -17 -14 -21 -4 -2 7 -9 9 -15 5 -7 -4 -6 1 2 10
15 19 14 19 35 11z"/>
<path d="M845 1340 c-10 -11 -15 -20 -11 -20 4 0 -2 -12 -13 -26 -24 -31 -27
-48 -7 -41 9 4 17 -2 21 -14 4 -10 11 -19 16 -19 13 0 11 13 -6 36 -19 25 -19
41 0 41 9 0 15 -10 15 -26 0 -18 3 -22 11 -14 11 11 -3 51 -24 64 -5 4 -5 9 2
13 6 4 16 -4 22 -18 7 -14 17 -22 25 -19 21 8 17 33 -6 33 -13 0 -18 5 -14 15
9 21 -10 19 -31 -5z"/>
<path d="M1206 1351 c-3 -5 0 -8 7 -7 6 0 13 -3 15 -9 1 -5 -3 -10 -10 -10 -6
0 -13 -6 -15 -12 -6 -17 9 -17 25 -1 10 10 15 10 22 -2 5 -8 11 -12 15 -9 7 7
-33 59 -45 59 -5 0 -11 -4 -14 -9z"/>
<path d="M1281 1254 c0 -11 3 -14 6 -6 3 7 2 16 -1 19 -3 4 -6 -2 -5 -13z"/>
<path d="M1287 1201 c-3 -15 -2 -41 2 -57 7 -24 8 -18 8 29 0 31 -1 57 -2 57
-1 0 -5 -13 -8 -29z"/>
<path d="M792 1180 c0 -19 2 -27 5 -17 2 9 2 25 0 35 -3 9 -5 1 -5 -18z"/>
<path d="M1497 1173 c-20 -3 -27 -9 -23 -21 3 -9 10 -37 15 -62 10 -43 48
-206 127 -532 35 -144 36 -147 65 -153 16 -4 52 -4 78 0 l49 7 62 241 c34 133
65 245 69 249 4 4 34 -105 66 -242 l60 -249 51 -7 c82 -10 112 1 123 44 9 32
80 329 151 626 12 48 20 90 18 91 -4 4 -78 9 -110 7 -20 -1 -29 -8 -33 -24 -2
-13 -25 -138 -50 -278 -48 -266 -53 -286 -60 -278 -2 2 -34 132 -70 288 -36
156 -67 286 -70 288 -5 5 -136 5 -139 0 -1 -2 -31 -130 -66 -285 -35 -156 -66
-280 -69 -277 -3 3 -29 129 -58 281 -29 151 -54 278 -57 281 -8 7 -95 11 -129
5z"/>
<path d="M2583 1173 l-23 -4 0 -379 0 -379 45 -7 c82 -12 306 1 350 20 101 43
148 137 124 244 -14 62 -41 96 -98 125 l-49 24 34 27 c48 38 67 81 67 148 -1
95 -49 149 -155 176 -44 11 -246 15 -295 5z m283 -137 c26 -29 32 -91 14 -127
-16 -29 -64 -49 -120 -49 l-50 0 0 106 0 106 66 -4 c58 -4 70 -8 90 -32z m-21
-296 c86 -19 115 -116 56 -182 -28 -32 -32 -33 -108 -33 l-78 0 -3 99 c-1 55
0 106 2 113 6 15 72 17 131 3z"/>
<path d="M3293 1173 l-33 -4 0 -378 0 -379 23 -6 c28 -7 76 -7 105 0 l22 6 0
379 c0 315 -2 379 -14 379 -7 0 -26 2 -42 4 -16 2 -44 2 -61 -1z"/>
<path d="M1145 1139 c-11 -4 -14 -8 -7 -8 19 -1 14 -21 -5 -22 -14 0 -13 -2 4
-9 15 -6 20 -15 16 -29 -8 -32 11 -25 23 8 15 38 -2 72 -31 60z"/>
<path d="M790 1132 c0 -5 7 -9 15 -9 8 0 15 4 15 9 0 4 -7 8 -15 8 -8 0 -15
-4 -15 -8z"/>
<path d="M836 1124 c-4 -9 -4 -19 -1 -22 3 -3 5 0 5 6 0 7 7 12 15 12 8 0 15
5 15 10 0 16 -27 11 -34 -6z"/>
<path d="M800 1103 c0 -4 5 -15 10 -23 8 -13 10 -13 10 2 0 9 -4 20 -10 23 -5
3 -10 3 -10 -2z"/>
<path d="M1267 1098 c-14 -8 -16 -13 -6 -24 8 -10 8 -14 0 -15 -6 -1 -15 -3
-21 -4 -5 -1 -14 -3 -19 -4 -5 0 -12 -9 -15 -18 -6 -15 -5 -15 13 1 12 11 21
14 26 7 3 -6 2 -11 -3 -11 -6 0 -13 -8 -16 -17 -6 -15 -5 -15 13 1 11 10 18
22 16 26 -3 4 2 11 11 14 9 3 14 13 11 20 -3 8 -1 17 6 19 7 2 10 7 7 10 -3 3
-13 1 -23 -5z"/>
<path d="M837 1077 c-4 -11 -1 -24 8 -33 21 -21 19 -29 -2 -13 -15 11 -14 10
1 -9 22 -26 41 -28 50 -6 4 11 2 15 -7 11 -7 -3 -13 3 -13 14 0 14 3 16 16 6
8 -6 17 -12 19 -14 2 -1 -3 -13 -11 -25 -14 -21 -14 -23 6 -23 18 0 21 5 17
38 -2 29 -9 41 -28 50 -19 8 -26 8 -33 -3 -6 -10 -9 -8 -12 6 -3 18 -4 18 -11
1z"/>
<path d="M1191 1064 c0 -11 3 -14 6 -6 3 7 2 16 -1 19 -3 4 -6 -2 -5 -13z"/>
<path d="M1160 1026 c0 -8 5 -18 10 -21 6 -3 10 3 10 14 0 12 -4 21 -10 21 -5
0 -10 -6 -10 -14z"/>
<path d="M975 980 c-4 -6 6 -10 22 -10 22 0 25 2 13 10 -19 12 -27 12 -35 0z"/>
<path d="M1065 974 c-20 -15 -20 -16 4 -12 14 2 26 9 29 16 5 16 -9 15 -33 -4z"/>
<path d="M900 971 c0 -5 7 -12 16 -15 14 -5 15 -4 4 9 -14 17 -20 19 -20 6z"/>
<path d="M943 960 c1 -21 10 -18 13 5 1 8 -2 15 -6 15 -5 0 -8 -9 -7 -20z"/>
<path d="M1149 971 c11 -7 10 -11 -5 -20 -24 -14 -9 -14 17 0 22 11 17 29 -9
29 -14 0 -14 -2 -3 -9z"/>
<path d="M1100 959 c-13 -6 -41 -7 -61 -4 -24 4 -40 2 -44 -6 -6 -9 0 -10 21
-5 29 6 29 6 5 -8 -23 -13 -22 -13 18 -13 30 0 39 3 29 9 -9 7 -2 8 22 5 19
-3 29 -3 22 0 -10 4 -9 8 5 19 21 16 17 16 -17 3z"/>
<path d="M1005 869 c-13 -6 -6 -7 23 -5 23 2 45 5 47 8 8 8 -50 5 -70 -3z"/>
<path d="M920 840 c-14 -11 -20 -20 -14 -20 6 0 19 9 29 20 23 25 17 25 -15 0z"/>
<path d="M1124 848 c-4 -6 -3 -8 4 -4 6 3 17 -1 26 -9 8 -8 17 -11 20 -7 3 5
-6 14 -19 20 -18 8 -26 8 -31 0z"/>
<path d="M475 826 c-69 -30 -121 -123 -113 -200 14 -124 130 -208 243 -177 88
24 155 109 155 195 -1 76 -57 160 -123 185 -39 15 -125 13 -162 -3z"/>
<path d="M988 833 c6 -2 18 -2 25 0 6 3 1 5 -13 5 -14 0 -19 -2 -12 -5z"/>
<path d="M1070 830 c0 -5 9 -10 21 -10 11 0 17 5 14 10 -3 6 -13 10 -21 10 -8
0 -14 -4 -14 -10z"/>
<path d="M863 788 c-6 -7 -14 -20 -18 -28 -8 -13 -7 -13 10 0 17 14 18 13 11
-5 -4 -11 -3 -16 1 -11 7 6 13 56 7 56 -1 0 -6 -6 -11 -12z"/>
<path d="M1200 789 c0 -5 4 -8 9 -4 9 5 37 -34 32 -45 -1 -2 3 -6 11 -8 8 -2
9 0 3 5 -5 4 -11 15 -13 23 -7 31 -42 55 -42 29z"/>
<path d="M1206 753 c-6 -14 -5 -15 5 -6 7 7 10 15 7 18 -3 3 -9 -2 -12 -12z"/>
<path d="M820 710 c0 -8 5 -22 10 -30 9 -13 10 -13 10 0 0 8 -5 22 -10 30 -9
13 -10 13 -10 0z"/>
<path d="M855 689 c9 -17 19 -29 21 -26 7 7 -18 57 -28 57 -5 0 -1 -14 7 -31z"/>
<path d="M1214 705 c3 -8 9 -22 12 -30 4 -10 2 -15 -7 -13 -7 2 -14 -6 -16
-17 l-3 -20 9 20 c5 11 10 16 10 11 1 -5 13 3 27 17 14 15 24 32 21 39 -3 8
-6 5 -7 -7 0 -17 -2 -18 -13 -5 -17 21 -41 25 -33 5z"/>
<path d="M813 643 c-1 -33 0 -35 7 -13 7 22 8 22 9 4 1 -11 10 -30 21 -42 24
-26 32 -28 24 -7 -4 8 -10 15 -15 15 -5 0 -9 6 -9 13 0 6 -8 24 -18 40 l-19
28 0 -38z"/>
<path d="M1255 660 c-4 -7 -3 -15 2 -19 6 -3 13 -13 16 -21 4 -11 6 -9 6 5 1
29 -14 51 -24 35z"/>
<path d="M1229 593 c-3 -17 -3 -32 0 -31 20 2 23 -4 7 -15 -9 -7 -18 -20 -19
-29 -2 -9 -9 -24 -17 -34 -14 -18 -14 -18 7 0 12 10 22 21 21 25 -2 19 3 31
11 27 12 -8 22 19 11 30 -5 5 -10 20 -12 34 -3 23 -4 22 -9 -7z"/>
<path d="M821 584 c0 -11 3 -14 6 -6 3 7 2 16 -1 19 -3 4 -6 -2 -5 -13z"/>
<path d="M1255 591 c-3 -5 -1 -12 5 -16 5 -3 10 1 10 9 0 18 -6 21 -15 7z"/>
<path d="M835 559 c-4 -5 1 -19 11 -30 16 -18 19 -18 27 -3 6 10 5 20 -3 27
-8 9 -10 8 -4 -6 5 -13 2 -16 -10 -11 -10 4 -15 13 -12 20 6 17 0 19 -9 3z"/>
<path d="M878 493 c6 -3 10 -9 7 -14 -4 -5 1 -6 10 -3 10 4 15 2 13 -7 -2 -9
4 -13 15 -11 9 2 16 -2 15 -9 -2 -6 3 -13 10 -14 7 -2 8 -1 2 2 -7 3 -7 10 2
21 7 10 9 14 4 10 -5 -4 -18 -2 -29 3 -15 9 -17 13 -6 19 8 6 1 8 -21 8 -19
-1 -29 -3 -22 -5z"/>
<path d="M1146 482 c-2 -4 4 -13 14 -20 16 -10 18 -8 17 8 -1 20 -21 27 -31
12z"/>
<path d="M1124 453 c3 -20 21 -28 31 -14 4 7 0 8 -11 4 -11 -4 -15 -3 -10 5 3
6 2 13 -3 16 -5 4 -8 -2 -7 -11z"/>
<path d="M1008 413 c7 -3 16 -2 19 1 4 3 -2 6 -13 5 -11 0 -14 -3 -6 -6z"/>
<path d="M1053 413 c9 -2 23 -2 30 0 6 3 -1 5 -18 5 -16 0 -22 -2 -12 -5z"/>
<path d="M485 364 c-16 -8 -38 -23 -48 -32 -22 -19 -45 -58 -29 -48 5 3 12 -1
15 -8 9 -23 44 -16 42 9 -4 35 -5 36 -16 29 -7 -4 -10 -1 -7 7 3 8 12 13 21
13 9 -1 15 2 12 6 -3 5 14 15 37 23 24 9 34 16 23 16 -11 1 -33 -6 -50 -15z
m-34 -69 c5 4 6 -1 3 -9 -3 -9 -10 -16 -16 -16 -5 0 -6 5 -3 10 3 6 1 10 -5
10 -6 0 -8 5 -4 12 6 9 9 9 12 0 2 -7 8 -10 13 -7z"/>
<path d="M580 370 c20 -13 33 -13 25 0 -3 6 -14 10 -23 10 -15 0 -15 -2 -2
-10z"/>
<path d="M557 353 c-3 -5 9 -9 26 -10 24 -2 28 0 17 7 -18 12 -37 13 -43 3z"/>
<path d="M644 329 c-2 -33 4 -33 11 -1 2 12 1 24 -3 26 -4 2 -8 -9 -8 -25z"/>
<path d="M100 308 c-167 -86 -47 -335 125 -259 114 50 115 210 2 261 -54 25
-73 25 -127 -2z"/>
<path d="M665 311 c-3 -5 -1 -12 5 -16 5 -3 10 -1 10 6 0 10 3 10 12 1 8 -8 8
-15 0 -24 -8 -11 -7 -14 9 -15 23 -2 24 6 3 35 -16 23 -29 28 -39 13z"/>
<path d="M390 255 c0 -8 2 -15 4 -15 2 0 6 7 10 15 3 8 1 15 -4 15 -6 0 -10
-7 -10 -15z"/>
<path d="M722 215 c0 -16 2 -22 5 -12 2 9 2 23 0 30 -3 6 -5 -1 -5 -18z"/>
<path d="M1650 191 c0 -28 5 -51 10 -51 6 0 10 6 10 14 0 8 9 18 21 21 32 11
22 59 -13 63 -27 3 -28 2 -28 -47z m48 17 c2 -9 -4 -18 -13 -21 -11 -5 -15 0
-15 19 0 28 23 29 28 2z"/>
<path d="M1842 228 c-17 -17 -15 -63 2 -78 8 -6 25 -10 38 -8 18 2 24 10 26
36 5 52 -34 82 -66 50z m48 -13 c17 -21 4 -67 -18 -63 -18 3 -28 39 -18 64 7
18 20 18 36 -1z"/>
<path d="M2030 190 l0 -50 33 1 c23 1 26 3 10 6 -20 4 -23 11 -23 49 0 24 -4
44 -10 44 -5 0 -10 -22 -10 -50z"/>
<path d="M2240 188 c0 -28 3 -48 8 -44 9 10 9 96 0 96 -5 0 -8 -23 -8 -52z"/>
<path d="M2412 227 c9 -7 18 -31 21 -53 l4 -39 1 43 c2 30 6 42 17 42 8 0 15
5 15 10 0 6 -17 10 -37 10 -33 -1 -36 -2 -21 -13z"/>
<path d="M2599 238 c0 -2 -3 -24 -5 -50 l-5 -48 33 1 c23 1 26 3 11 6 -25 5
-32 33 -8 33 8 0 15 5 15 10 0 6 -7 10 -16 10 -9 0 -14 6 -11 13 2 6 12 11 21
11 9 -1 16 2 16 7 0 8 -49 14 -51 7z"/>
<path d="M2771 190 c1 -27 6 -50 11 -50 4 0 8 23 8 50 0 28 -5 50 -10 50 -6 0
-10 -22 -9 -50z"/>
<path d="M2812 215 c-12 -26 1 -75 19 -75 5 0 3 11 -3 25 -8 19 -8 31 0 50 6
14 8 25 3 25 -4 0 -13 -11 -19 -25z"/>
<path d="M2960 190 c0 -27 5 -50 10 -50 6 0 10 15 10 33 l0 32 21 -32 c12 -18
23 -33 25 -33 2 0 3 24 3 53 -1 46 -2 48 -8 17 l-6 -35 -20 33 c-11 17 -23 32
-27 32 -4 0 -8 -22 -8 -50z"/>
<path d="M3181 188 c1 -55 5 -50 11 15 2 20 0 37 -4 37 -4 0 -7 -24 -7 -52z"/>
<path d="M3343 190 c0 -30 2 -43 4 -27 2 15 2 39 0 55 -2 15 -4 2 -4 -28z"/>
<path d="M3377 213 c-14 -26 -14 -31 4 -53 20 -27 25 -21 9 11 -8 13 -7 25 0
40 7 11 9 23 7 26 -3 3 -12 -8 -20 -24z"/>
<path d="M381 214 c0 -11 3 -14 6 -6 3 7 2 16 -1 19 -3 4 -6 -2 -5 -13z"/>
<path d="M420 168 c0 -9 5 -20 10 -23 13 -8 13 5 0 25 -8 13 -10 13 -10 -2z"/>
<path d="M650 165 c-9 -11 -9 -15 -1 -15 6 0 11 5 11 10 0 14 28 12 32 -2 3
-8 6 -7 10 3 8 20 -36 23 -52 4z"/>
<path d="M390 166 c0 -5 9 -24 21 -42 19 -32 39 -37 39 -12 0 6 -3 8 -7 5 -3
-4 -17 8 -30 25 -12 18 -23 28 -23 24z"/>
<path d="M701 139 c-7 -12 -10 -23 -8 -26 3 -3 11 5 17 17 15 28 8 35 -9 9z"/>
<path d="M465 140 c-3 -5 -1 -10 4 -10 6 0 11 5 11 10 0 6 -2 10 -4 10 -3 0
-8 -4 -11 -10z"/>
<path d="M667 143 c-4 -3 -7 -11 -7 -17 0 -6 5 -5 12 2 6 6 9 14 7 17 -3 3 -9
2 -12 -2z"/>
<path d="M668 98 c-2 -6 -21 -16 -42 -22 -39 -12 -50 -29 -19 -33 15 -2 15 -1
-2 6 -11 5 -15 10 -8 10 6 1 19 4 29 8 12 5 15 3 9 -6 -6 -10 -3 -11 12 -3 28
16 46 39 34 46 -5 3 -11 1 -13 -6z"/>
<path d="M487 93 c-3 -5 5 -8 16 -9 12 0 31 -4 42 -8 13 -5 11 -2 -5 8 -28 17
-46 20 -53 9z"/>
<path d="M468 63 c7 -3 16 -2 19 1 4 3 -2 6 -13 5 -11 0 -14 -3 -6 -6z"/>
<path d="M505 51 c-6 -11 62 -27 72 -17 4 3 -6 6 -20 6 -15 0 -27 5 -27 10 0
13 -17 13 -25 1z"/>
</g>
</svg>
